<svg xmlns="http://www.w3.org/2000/svg" viewBox="0 0 120 120" width="120" height="120">
  <defs>
    <linearGradient id="bg" x1="0" y1="0" x2="1" y2="1">
      <stop offset="0" stop-color="#fffaf0"/>
      <stop offset="1" stop-color="#f7dfd2"/>
    </linearGradient>
    <linearGradient id="accent" x1="0" y1="0" x2="1" y2="1">
      <stop offset="0" stop-color="#c15f3c"/>
      <stop offset="1" stop-color="#9f472b"/>
    </linearGradient>
  </defs>
  <rect x="4" y="4" width="112" height="112" rx="26" fill="url(#bg)" stroke="#dfd7ca" stroke-width="1.5"/>
  <!-- image card -->
  <rect x="26" y="30" width="68" height="52" rx="9" fill="#ffffff" stroke="#dfd7ca" stroke-width="1.2"/>
  <rect x="33" y="38" width="22" height="16" rx="3" fill="url(#accent)" opacity="0.85"/>
  <rect x="60" y="38" width="28" height="7" rx="3" fill="#e7ddcf"/>
  <rect x="60" y="49" width="20" height="7" rx="3" fill="#ece3d6"/>
  <rect x="33" y="60" width="55" height="5" rx="2.5" fill="#ece3d6"/>
  <rect x="33" y="69" width="40" height="5" rx="2.5" fill="#ece3d6"/>
  <!-- hotspot dots -->
  <circle cx="44" cy="46" r="5.5" fill="none" stroke="url(#accent)" stroke-width="2.2"/>
  <circle cx="44" cy="46" r="2.2" fill="#c15f3c"/>
  <circle cx="73" cy="62" r="5.5" fill="none" stroke="url(#accent)" stroke-width="2.2"/>
  <circle cx="73" cy="62" r="2.2" fill="#c15f3c"/>
  <!-- chat bubble -->
  <path d="M30 84 h44 a8 8 0 0 1 8 8 v6 a8 8 0 0 1 -8 8 H48 l-10 8 v-8 h-8 a8 8 0 0 1 -8 -8 v-6 a8 8 0 0 1 8 -8 z" fill="url(#accent)"/>
  <circle cx="44" cy="95" r="2.4" fill="#fffaf0"/>
  <circle cx="54" cy="95" r="2.4" fill="#fffaf0"/>
  <circle cx="64" cy="95" r="2.4" fill="#fffaf0"/>
</svg>
